{
	"asset":{
		"generator":"Khronos glTF Blender I/O v3.6.27",
		"version":"2.0"
	},
	"scene":0,
	"scenes":[
		{
			"name":"Scene",
			"nodes":[
				0
			]
		}
	],
	"nodes":[
		{
			"extras":{
				"ant_landscape":{
					"ant_terrain_name":"Landscape",
					"at_cursor":1,
					"smooth_mesh":1,
					"tri_face":0,
					"sphere_mesh":0,
					"land_material":"",
					"water_material":"",
					"texture_block":"",
					"subdivision_x":200,
					"subdivision_y":200,
					"mesh_size_x":2.0,
					"mesh_size_y":2.0,
					"mesh_size":2.0,
					"random_seed":5,
					"noise_offset_x":0.0,
					"noise_offset_y":-0.25,
					"noise_offset_z":0.0,
					"noise_size_x":1.0,
					"noise_size_y":1.25,
					"noise_size_z":1.0,
					"noise_size":1.5,
					"noise_type":7,
					"basis_type":0,
					"vl_basis_type":0,
					"distortion":2.0,
					"hard_noise":1,
					"noise_depth":12,
					"amplitude":0.5,
					"frequency":2.0,
					"dimension":1.0,
					"lacunarity":2.0,
					"offset":1.0,
					"gain":1.0,
					"marble_bias":0,
					"marble_sharp":0,
					"marble_shape":4,
					"height":0.6000000238418579,
					"height_invert":0,
					"height_offset":0.0,
					"maximum":0.5,
					"minimum":-0.20000000298023224,
					"edge_falloff":2,
					"edge_level":0.15000000596046448,
					"falloff_x":4.0,
					"falloff_y":4.0,
					"strata_type":2,
					"strata":6.0,
					"water_plane":0,
					"water_level":0.009999999776482582,
					"vert_group":"",
					"remove_double":0,
					"fx_mixfactor":0.0,
					"fx_mix_mode":8,
					"fx_type":20,
					"fx_bias":0,
					"fx_turb":0.0,
					"fx_depth":3,
					"fx_frequency":1.649999976158142,
					"fx_amplitude":0.5,
					"fx_size":1.5,
					"fx_loc_x":3.0,
					"fx_loc_y":2.0,
					"fx_height":0.25,
					"fx_offset":0.05000000074505806,
					"fx_invert":0
				}
			},
			"mesh":0,
			"name":"Landscape.001",
			"scale":[
				75.10425567626953,
				75.10425567626953,
				75.10425567626953
			]
		}
	],
	"materials":[
		{
			"doubleSided":true,
			"name":"sand",
			"pbrMetallicRoughness":{
				"baseColorFactor":[
					0.11953839659690857,
					0.09305888414382935,
					0.03433983772993088,
					1
				],
				"metallicFactor":0
			}
		}
	],
	"meshes":[
		{
			"name":"Landscape.001",
			"primitives":[
				{
					"attributes":{
						"POSITION":0,
						"NORMAL":1
					},
					"indices":2,
					"material":0
				}
			]
		}
	],
	"accessors":[
		{
			"bufferView":0,
			"componentType":5126,
			"count":40000,
			"max":[
				1,
				0.3370383381843567,
				1
			],
			"min":[
				-1,
				0.004584213253110647,
				-1
			],
			"type":"VEC3"
		},
		{
			"bufferView":1,
			"componentType":5126,
			"count":40000,
			"type":"VEC3"
		},
		{
			"bufferView":2,
			"componentType":5123,
			"count":237606,
			"type":"SCALAR"
		}
	],
	"bufferViews":[
		{
			"buffer":0,
			"byteLength":480000,
			"byteOffset":0,
			"target":34962
		},
		{
			"buffer":0,
			"byteLength":480000,
			"byteOffset":480000,
			"target":34962
		},
		{
			"buffer":0,
			"byteLength":475212,
			"byteOffset":960000,
			"target":34963
		}
	],
	"buffers":[
		{
			"byteLength":1435212,
			"uri":"Canyon-7ec4b316994c5a596c1a5cd5db7f35db.bin"
		}
	]
}
