{
	"asset":{
		"generator":"Khronos glTF Blender I/O v3.6.27",
		"version":"2.0"
	},
	"scene":0,
	"scenes":[
		{
			"name":"Scene",
			"nodes":[
				0
			]
		}
	],
	"nodes":[
		{
			"mesh":0,
			"name":"Nomad_driter",
			"rotation":[
				0,
				0.0707777664065361,
				0,
				0.9974921345710754
			],
			"scale":[
				0.37194758653640747,
				0.37194761633872986,
				0.37194758653640747
			],
			"translation":[
				0,
				0.21123617887496948,
				0
			]
		}
	],
	"materials":[
		{
			"doubleSided":true,
			"name":"red_plastics",
			"pbrMetallicRoughness":{
				"baseColorFactor":[
					0.8000000715255737,
					0.001864246092736721,
					0.0027574580162763596,
					1
				],
				"metallicFactor":0,
				"roughnessFactor":0.5
			}
		},
		{
			"doubleSided":true,
			"name":"yellow_plastic",
			"pbrMetallicRoughness":{
				"baseColorFactor":[
					0.8000000715255737,
					0.7083222270011902,
					0,
					1
				],
				"metallicFactor":0,
				"roughnessFactor":0.5
			}
		},
		{
			"doubleSided":true,
			"name":"black_plastic",
			"pbrMetallicRoughness":{
				"baseColorFactor":[
					0.021979311481118202,
					0.02124311402440071,
					0.021790646016597748,
					1
				],
				"metallicFactor":0,
				"roughnessFactor":0.5
			}
		}
	],
	"meshes":[
		{
			"name":"Cylinder.007",
			"primitives":[
				{
					"attributes":{
						"POSITION":0,
						"NORMAL":1,
						"TEXCOORD_0":2
					},
					"indices":3,
					"material":0
				},
				{
					"attributes":{
						"POSITION":4,
						"NORMAL":5,
						"TEXCOORD_0":6
					},
					"indices":7,
					"material":1
				},
				{
					"attributes":{
						"POSITION":8,
						"NORMAL":9,
						"TEXCOORD_0":10
					},
					"indices":11,
					"material":2
				}
			]
		}
	],
	"accessors":[
		{
			"bufferView":0,
			"componentType":5126,
			"count":51,
			"max":[
				0.10999999940395355,
				0.24274295568466187,
				0.10999999940395355
			],
			"min":[
				-0.10999999940395355,
				0.0441589429974556,
				-0.10999999940395355
			],
			"type":"VEC3"
		},
		{
			"bufferView":1,
			"componentType":5126,
			"count":51,
			"type":"VEC3"
		},
		{
			"bufferView":2,
			"componentType":5126,
			"count":51,
			"type":"VEC2"
		},
		{
			"bufferView":3,
			"componentType":5123,
			"count":192,
			"type":"SCALAR"
		},
		{
			"bufferView":4,
			"componentType":5126,
			"count":548,
			"max":[
				0.2602686882019043,
				0.36500000953674316,
				0.2602686882019043
			],
			"min":[
				-0.2602686882019043,
				-1.500988245010376,
				-0.2602686583995819
			],
			"type":"VEC3"
		},
		{
			"bufferView":5,
			"componentType":5126,
			"count":548,
			"type":"VEC3"
		},
		{
			"bufferView":6,
			"componentType":5126,
			"count":548,
			"type":"VEC2"
		},
		{
			"bufferView":7,
			"componentType":5123,
			"count":2460,
			"type":"SCALAR"
		},
		{
			"bufferView":8,
			"componentType":5126,
			"count":34,
			"max":[
				0.10999999940395355,
				0.004948178306221962,
				0.10999999940395355
			],
			"min":[
				-0.10999999940395355,
				-0.005897358059883118,
				-0.10999999940395355
			],
			"type":"VEC3"
		},
		{
			"bufferView":9,
			"componentType":5126,
			"count":34,
			"type":"VEC3"
		},
		{
			"bufferView":10,
			"componentType":5126,
			"count":34,
			"type":"VEC2"
		},
		{
			"bufferView":11,
			"componentType":5123,
			"count":96,
			"type":"SCALAR"
		}
	],
	"bufferViews":[
		{
			"buffer":0,
			"byteLength":612,
			"byteOffset":0,
			"target":34962
		},
		{
			"buffer":0,
			"byteLength":612,
			"byteOffset":612,
			"target":34962
		},
		{
			"buffer":0,
			"byteLength":408,
			"byteOffset":1224,
			"target":34962
		},
		{
			"buffer":0,
			"byteLength":384,
			"byteOffset":1632,
			"target":34963
		},
		{
			"buffer":0,
			"byteLength":6576,
			"byteOffset":2016,
			"target":34962
		},
		{
			"buffer":0,
			"byteLength":6576,
			"byteOffset":8592,
			"target":34962
		},
		{
			"buffer":0,
			"byteLength":4384,
			"byteOffset":15168,
			"target":34962
		},
		{
			"buffer":0,
			"byteLength":4920,
			"byteOffset":19552,
			"target":34963
		},
		{
			"buffer":0,
			"byteLength":408,
			"byteOffset":24472,
			"target":34962
		},
		{
			"buffer":0,
			"byteLength":408,
			"byteOffset":24880,
			"target":34962
		},
		{
			"buffer":0,
			"byteLength":272,
			"byteOffset":25288,
			"target":34962
		},
		{
			"buffer":0,
			"byteLength":192,
			"byteOffset":25560,
			"target":34963
		}
	],
	"buffers":[
		{
			"byteLength":25752,
			"uri":"nomad_filter-5810720512d1fd10c600dbb14612629c.bin"
		}
	]
}
